<?xml version="1.0" encoding="UTF-8" standalone="no"?>
<!-- Created with Inkscape (http://www.inkscape.org/) -->
<svg
   xmlns:dc="http://purl.org/dc/elements/1.1/"
   xmlns:cc="http://creativecommons.org/ns#"
   xmlns:rdf="http://www.w3.org/1999/02/22-rdf-syntax-ns#"
   xmlns:svg="http://www.w3.org/2000/svg"
   xmlns="http://www.w3.org/2000/svg"
   xmlns:xlink="http://www.w3.org/1999/xlink"
   xmlns:sodipodi="http://sodipodi.sourceforge.net/DTD/sodipodi-0.dtd"
   xmlns:inkscape="http://www.inkscape.org/namespaces/inkscape"
   id="svg2"
   sodipodi:version="0.32"
   inkscape:version="0.46"
   width="182"
   height="194.05"
   version="1.0"
   sodipodi:docname="SOAP.svg"
   inkscape:output_extension="org.inkscape.output.svg.inkscape">
  <metadata
     id="metadata7">
    <rdf:RDF>
      <cc:Work
         rdf:about="">
        <dc:format>image/svg+xml</dc:format>
        <dc:type
           rdf:resource="http://purl.org/dc/dcmitype/StillImage" />
      </cc:Work>
    </rdf:RDF>
  </metadata>
  <defs
     id="defs5">
    <linearGradient
       id="linearGradient3203">
      <stop
         style="stop-color:#ffff5a;stop-opacity:1;"
         offset="0"
         id="stop3205" />
      <stop
         style="stop-color:#ffffff;stop-opacity:1;"
         offset="1"
         id="stop3207" />
    </linearGradient>
    <linearGradient
       id="linearGradient3187">
      <stop
         style="stop-color:#46c8c8;stop-opacity:1;"
         offset="0"
         id="stop3189" />
      <stop
         style="stop-color:#ffffff;stop-opacity:1;"
         offset="1"
         id="stop3191" />
    </linearGradient>
    <inkscape:perspective
       sodipodi:type="inkscape:persp3d"
       inkscape:vp_x="0 : 526.18109 : 1"
       inkscape:vp_y="0 : 1000 : 0"
       inkscape:vp_z="744.09448 : 526.18109 : 1"
       inkscape:persp3d-origin="372.04724 : 350.78739 : 1"
       id="perspective9" />
    <radialGradient
       inkscape:collect="always"
       xlink:href="#linearGradient3187"
       id="radialGradient3266"
       gradientUnits="userSpaceOnUse"
       gradientTransform="matrix(2.0101294,2.9033276e-3,-3.8490759e-3,2.6649216,-42.258911,-79.068613)"
       cx="38.910027"
       cy="43.743443"
       fx="38.910027"
       fy="43.743443"
       r="90" />
    <radialGradient
       inkscape:collect="always"
       xlink:href="#linearGradient3203"
       id="radialGradient3268"
       gradientUnits="userSpaceOnUse"
       gradientTransform="matrix(2.397173,-2.4011514e-8,4.2265265e-8,4.0893369,-35.36237,-151.4082)"
       cx="25.567646"
       cy="58.730656"
       fx="25.567646"
       fy="58.730656"
       r="80" />
    <radialGradient
       inkscape:collect="always"
       xlink:href="#linearGradient3203"
       id="radialGradient3270"
       gradientUnits="userSpaceOnUse"
       gradientTransform="matrix(1.9034766,1.2092041e-2,-9.3145892e-3,1.4662621,-38.16889,23.88056)"
       cx="37.467796"
       cy="8.4022884"
       fx="37.467796"
       fy="8.4022884"
       r="80" />
    <radialGradient
       inkscape:collect="always"
       xlink:href="#linearGradient3187"
       id="radialGradient3272"
       gradientUnits="userSpaceOnUse"
       gradientTransform="matrix(1.8772852,-2.4636418e-2,7.8686013e-4,1.4938527,-37.431704,156.5039)"
       cx="38.910027"
       cy="43.743443"
       fx="38.910027"
       fy="43.743443"
       r="90" />
    <radialGradient
       inkscape:collect="always"
       xlink:href="#linearGradient3187"
       id="radialGradient3316"
       gradientUnits="userSpaceOnUse"
       gradientTransform="matrix(1.8772852,-2.4636418e-2,7.8686013e-4,1.4938527,-46.164014,147.35381)"
       cx="38.910027"
       cy="43.743443"
       fx="38.910027"
       fy="43.743443"
       r="90" />
    <radialGradient
       inkscape:collect="always"
       xlink:href="#linearGradient3187"
       id="radialGradient3334"
       gradientUnits="userSpaceOnUse"
       gradientTransform="matrix(2.0101294,2.9033276e-3,-3.8490759e-3,2.6649216,-42.258911,-79.068613)"
       cx="38.910027"
       cy="43.743443"
       fx="38.910027"
       fy="43.743443"
       r="90" />
    <radialGradient
       inkscape:collect="always"
       xlink:href="#linearGradient3203"
       id="radialGradient3336"
       gradientUnits="userSpaceOnUse"
       gradientTransform="matrix(2.397173,-2.4011514e-8,4.2265265e-8,4.0893369,-35.36237,-151.4082)"
       cx="25.567646"
       cy="58.730656"
       fx="25.567646"
       fy="58.730656"
       r="80" />
    <radialGradient
       inkscape:collect="always"
       xlink:href="#linearGradient3203"
       id="radialGradient3338"
       gradientUnits="userSpaceOnUse"
       gradientTransform="matrix(1.9034766,1.2092041e-2,-9.3145892e-3,1.4662621,-38.16889,23.88056)"
       cx="37.467796"
       cy="8.4022884"
       fx="37.467796"
       fy="8.4022884"
       r="80" />
  </defs>
  <sodipodi:namedview
     inkscape:window-height="751"
     inkscape:window-width="1249"
     inkscape:pageshadow="2"
     inkscape:pageopacity="0.0"
     guidetolerance="10.0"
     gridtolerance="10.0"
     objecttolerance="10.0"
     borderopacity="1.0"
     bordercolor="#666666"
     pagecolor="#ffffff"
     id="base"
     showgrid="false"
     inkscape:zoom="1.3419809"
     inkscape:cx="101.54791"
     inkscape:cy="135.97569"
     inkscape:window-x="-4"
     inkscape:window-y="-4"
     inkscape:current-layer="svg2" />
  <g
     id="g3325"
     transform="translate(-0.138963,1.0767518e-3)">
    <g
       transform="translate(-8.73231,-9.1500937)"
       id="g3247">
      <path
         style="fill:url(#radialGradient3334);fill-opacity:1;fill-rule:evenodd;stroke:#000000;stroke-width:1.5;stroke-linecap:round;stroke-linejoin:miter;stroke-miterlimit:4;stroke-dashoffset:0;stroke-opacity:1"
         d="M 26.671352,10.896119 L 173.07119,10.896119 C 181.96294,10.896119 189.12127,18.054455 189.12127,26.946198 L 189.12127,185.39894 C 189.12127,194.29069 181.96294,201.44902 173.07119,201.44902 L 26.671352,201.44902 C 17.779608,201.44902 10.621273,194.29069 10.621273,185.39894 L 10.621273,26.946198 C 10.621273,18.054455 17.779608,10.896119 26.671352,10.896119 z"
         id="rect2391" />
      <path
         style="font-size:14.01231575px;font-style:normal;font-variant:normal;font-weight:normal;font-stretch:normal;text-align:start;line-height:125%;writing-mode:lr-tb;text-anchor:start;fill:#000000;fill-opacity:1;stroke:none;stroke-width:1px;stroke-linecap:butt;stroke-linejoin:miter;stroke-opacity:1;font-family:Dotum;-inkscape-font-specification:Dotum"
         d="M 30,24.964325 L 30,25.032744 C 29.999999,26.081845 30.323851,26.889195 30.971557,27.454795 C 31.619259,28.029519 32.549763,28.31688 33.763073,28.316881 C 34.830411,28.31688 35.674251,28.052325 36.294595,27.523214 C 36.914924,26.994104 37.225092,26.282542 37.2251,25.388526 C 37.225092,24.576618 36.969659,23.942597 36.458802,23.486463 C 35.975297,23.057706 35.17707,22.706486 34.064119,22.432803 L 32.887303,22.145441 C 32.285208,21.990363 31.851885,21.780543 31.587332,21.515981 C 31.322775,21.24231 31.190497,20.872845 31.190499,20.407585 C 31.190497,19.805502 31.386633,19.34025 31.778907,19.011827 C 32.180298,18.683423 32.755022,18.519216 33.503079,18.519207 C 34.278495,18.519216 34.880586,18.710791 35.309354,19.093931 C 35.747232,19.477088 35.970736,20.029005 35.979865,20.749683 L 36.937738,20.749683 C 36.919485,19.782695 36.613878,19.030081 36.020917,18.491839 C 35.427941,17.953616 34.602347,17.684499 33.54413,17.684489 C 32.522396,17.684499 31.710485,17.93537 31.108396,18.437103 C 30.524548,18.929733 30.232625,19.581998 30.232626,20.393901 C 30.232625,21.169329 30.456128,21.766859 30.903137,22.186493 C 31.30453,22.551402 31.997847,22.86157 32.98309,23.116998 L 33.92728,23.349624 C 34.803044,23.568571 35.400573,23.814881 35.719871,24.088555 C 36.093891,24.398727 36.280904,24.86854 36.280911,25.497997 C 36.280904,26.10009 36.0574,26.579027 35.6104,26.934807 C 35.163386,27.299711 34.547611,27.482163 33.763073,27.482163 C 32.869054,27.482163 32.175737,27.25866 31.68312,26.811651 C 31.19962,26.373768 30.957871,25.757993 30.957873,24.964325 L 30,24.964325 z M 38.90822,22.993843 C 38.908219,24.617669 39.309613,25.913077 40.112404,26.880071 C 40.906067,27.837944 41.950604,28.31688 43.246017,28.316881 C 44.587033,28.31688 45.658938,27.837944 46.461734,26.880071 C 47.282759,25.9222 47.693276,24.626792 47.693285,22.993843 C 47.693276,21.351781 47.282759,20.051812 46.461734,19.093931 C 45.658938,18.154313 44.587033,17.684499 43.246017,17.684489 C 41.941481,17.684499 40.896944,18.154313 40.112404,19.093931 C 39.309613,20.060934 38.908219,21.360904 38.90822,22.993843 L 38.90822,22.993843 z M 39.825042,22.993843 C 39.82504,21.607214 40.148892,20.50338 40.796599,19.682338 C 41.416932,18.897804 42.233404,18.505532 43.246017,18.505523 C 44.313355,18.505532 45.161756,18.897804 45.791223,19.682338 C 46.448042,20.485135 46.776455,21.588969 46.776464,22.993843 C 46.776455,24.389604 46.448042,25.493438 45.791223,26.305347 C 45.161756,27.099014 44.313355,27.495847 43.246017,27.495847 C 42.224282,27.495847 41.403248,27.099014 40.782915,26.305347 C 40.144331,25.484315 39.82504,24.380482 39.825042,22.993843 L 39.825042,22.993843 z M 48.705895,28.029519 L 49.677452,28.029519 L 50.826899,24.950641 L 55.369955,24.950641 L 56.492035,28.029519 L 57.463592,28.029519 L 53.632099,17.944483 L 52.537387,17.944483 L 48.705895,28.029519 z M 51.141629,24.115923 L 53.071059,18.929724 L 55.041541,24.115923 L 51.141629,24.115923 z M 59.242499,28.029519 L 60.15932,28.029519 L 60.15932,23.664354 L 62.307693,23.664354 C 63.557484,23.664358 64.497111,23.42261 65.126577,22.939107 C 65.746906,22.464737 66.057074,21.748614 66.057082,20.790734 C 66.057074,19.841992 65.778835,19.13043 65.222364,18.656046 C 64.675001,18.18168 63.849407,17.944493 62.745578,17.944483 L 59.242499,17.944483 L 59.242499,28.029519 z M 60.15932,22.829636 L 60.15932,18.779201 L 62.71821,18.779201 C 63.530116,18.77921 64.132207,18.938855 64.524485,19.258137 C 64.91675,19.577437 65.112886,20.07918 65.112893,20.763367 C 65.112886,21.502304 64.88026,22.035976 64.415014,22.364383 C 63.977123,22.674557 63.279245,22.829641 62.321377,22.829636 L 60.15932,22.829636 z M 67.534942,22.610693 L 67.534942,23.363308 L 74.513732,23.363308 L 74.513732,22.610693 L 67.534942,22.610693 z M 76.511584,28.029519 L 83.285116,28.029519 L 83.285116,27.194801 L 77.428405,27.194801 L 77.428405,23.267521 L 82.628288,23.267521 L 82.628288,22.432803 L 77.428405,22.432803 L 77.428405,18.779201 L 83.120909,18.779201 L 83.120909,17.944483 L 76.511584,17.944483 L 76.511584,28.029519 z M 85.570326,28.029519 L 86.240837,28.029519 L 86.240837,19.490764 L 91.468087,28.029519 L 92.467012,28.029519 L 92.467012,17.944483 L 91.550191,17.944483 L 91.550191,26.428502 L 86.350308,17.944483 L 85.324015,17.944483 L 85.324015,28.029519 L 85.570326,28.029519 z M 97.502688,28.029519 L 98.501613,28.029519 L 101.99101,17.944483 L 101.0605,17.944483 L 98.008992,26.852703 L 94.971166,17.944483 L 93.999609,17.944483 L 97.502688,28.029519 z M 103.92044,26.551657 L 105.16567,26.551657 L 105.16567,25.306422 L 103.92044,25.306422 L 103.92044,26.551657 z M 103.92044,20.667579 L 105.16567,20.667579 L 105.16567,19.422344 L 103.92044,19.422344 L 103.92044,20.667579 z M 112.9655,28.029519 L 119.73903,28.029519 L 119.73903,27.194801 L 113.88232,27.194801 L 113.88232,23.267521 L 119.0822,23.267521 L 119.0822,22.432803 L 113.88232,22.432803 L 113.88232,18.779201 L 119.57482,18.779201 L 119.57482,17.944483 L 112.9655,17.944483 L 112.9655,28.029519 z M 121.60004,28.029519 L 122.43476,28.029519 L 122.43476,23.746457 C 122.43476,22.989286 122.63545,22.391757 123.03685,21.953866 C 123.43824,21.52511 123.97647,21.310729 124.65155,21.310723 C 125.36311,21.310729 125.8466,21.48862 126.10204,21.844395 C 126.33922,22.154569 126.45782,22.701925 126.45782,23.486463 L 126.45782,28.029519 L 127.29254,28.029519 L 127.29254,23.390676 C 127.29254,22.925428 127.27885,22.583331 127.25149,22.364383 C 127.20587,22.054221 127.12377,21.798788 127.00518,21.598085 C 126.80448,21.269678 126.51712,21.014245 126.14309,20.831786 C 125.75994,20.658464 125.31749,20.5718 124.81576,20.571792 C 124.28664,20.5718 123.82139,20.681271 123.42,20.900206 C 123.0186,21.128278 122.68563,21.465814 122.42107,21.912814 L 122.42107,20.749683 L 121.60004,20.749683 L 121.60004,28.029519 z M 131.27456,28.029519 L 132.20507,28.029519 L 134.84606,20.749683 L 133.98397,20.749683 L 131.78087,27.003226 L 129.57776,20.749683 L 128.66094,20.749683 L 131.27456,28.029519 z M 136.78917,23.869612 C 136.78005,23.121564 137.00811,22.492105 137.47337,21.981234 C 137.88388,21.534233 138.40843,21.310729 139.04702,21.310723 C 139.67647,21.310729 140.18734,21.534233 140.57961,21.981234 C 141.01749,22.492105 141.23644,23.121564 141.23644,23.869612 L 136.78917,23.869612 z M 136.78917,24.540124 L 142.11221,24.540124 L 142.11221,24.266446 C 142.1122,23.098758 141.83853,22.186498 141.29118,21.529665 C 140.74382,20.89109 140.00489,20.5718 139.07439,20.571792 C 138.08914,20.5718 137.31828,20.904774 136.76181,21.570717 C 136.1962,22.254918 135.9134,23.208229 135.9134,24.430652 C 135.9134,25.625716 136.19164,26.560781 136.74812,27.235852 C 137.3046,27.901802 138.06633,28.234777 139.03333,28.234777 C 139.83612,28.234777 140.50663,28.006712 141.04487,27.550582 C 141.59222,27.103576 141.91151,26.515168 142.00274,25.785359 L 141.16802,25.785359 C 141.08591,26.305349 140.85329,26.720427 140.47014,27.030594 C 140.09611,27.33164 139.63998,27.482163 139.10175,27.482163 C 138.40843,27.482163 137.85195,27.222169 137.43232,26.70218 C 137.00355,26.173071 136.78917,25.452386 136.78917,24.540124 L 136.78917,24.540124 z M 144.0827,28.029519 L 144.91741,28.029519 L 144.91741,17.944483 L 144.0827,17.944483 L 144.0827,28.029519 z M 150.36361,20.571792 C 149.3145,20.5718 148.47979,20.968632 147.85945,21.762292 C 147.3121,22.482983 147.03842,23.363313 147.03842,24.403285 C 147.03842,25.434141 147.3121,26.305349 147.85945,27.01691 C 148.47979,27.819699 149.3145,28.221093 150.36361,28.221093 C 151.4127,28.221093 152.24742,27.819699 152.86776,27.01691 C 153.42423,26.305349 153.70247,25.434141 153.70248,24.403285 C 153.70247,23.363313 153.42423,22.482983 152.86776,21.762292 C 152.24742,20.968632 151.4127,20.5718 150.36361,20.571792 L 150.36361,20.571792 z M 150.36361,21.310723 C 151.13902,21.310729 151.7548,21.63002 152.21093,22.268596 C 152.63057,22.852448 152.84039,23.559448 152.84039,24.389601 C 152.84039,25.21976 152.63057,25.9222 152.21093,26.496922 C 151.7548,27.144627 151.13902,27.468479 150.36361,27.468479 C 149.57906,27.468479 148.96328,27.144627 148.51628,26.496922 C 148.10576,25.9222 147.9005,25.21976 147.9005,24.389601 C 147.9005,23.550326 148.10576,22.843325 148.51628,22.268596 C 148.97241,21.63002 149.58818,21.310729 150.36361,21.310723 L 150.36361,21.310723 z M 155.67295,30.000001 L 156.50767,30.000001 L 156.50767,26.797968 C 156.79047,27.263221 157.14625,27.619002 157.57502,27.865312 C 158.00377,28.111622 158.48727,28.234777 159.02551,28.234777 C 160.00162,28.234777 160.7816,27.833383 161.36546,27.030594 C 161.89456,26.30991 162.15912,25.434141 162.15912,24.403285 C 162.15912,23.363313 161.89456,22.482983 161.36546,21.762292 C 160.7816,20.968632 160.00162,20.5718 159.02551,20.571792 C 158.48727,20.5718 157.99921,20.694955 157.56133,20.941257 C 157.15081,21.178452 156.79959,21.520549 156.50767,21.96755 L 156.50767,20.749683 L 155.67295,20.749683 L 155.67295,30.000001 z M 158.87499,21.310723 C 159.63216,21.310729 160.23425,21.63002 160.68126,22.268596 C 161.09177,22.843325 161.29703,23.550326 161.29704,24.389601 C 161.29703,25.21976 161.09177,25.926761 160.68126,26.510606 C 160.23425,27.158311 159.63216,27.482163 158.87499,27.482163 C 158.09956,27.482163 157.48835,27.158311 157.04134,26.510606 C 156.63995,25.926761 156.43925,25.21976 156.43925,24.389601 C 156.43925,23.550326 156.63995,22.843325 157.04134,22.268596 C 157.48835,21.63002 158.09956,21.310729 158.87499,21.310723 L 158.87499,21.310723 z M 164.67696,23.869612 C 164.66784,23.121564 164.8959,22.492105 165.36116,21.981234 C 165.77167,21.534233 166.29622,21.310729 166.9348,21.310723 C 167.56426,21.310729 168.07512,21.534233 168.4674,21.981234 C 168.90528,22.492105 169.12422,23.121564 169.12423,23.869612 L 164.67696,23.869612 z M 164.67696,24.540124 L 170,24.540124 L 170,24.266446 C 169.99999,23.098758 169.72631,22.186498 169.17896,21.529665 C 168.6316,20.89109 167.89267,20.5718 166.96217,20.571792 C 165.97693,20.5718 165.20607,20.904774 164.64959,21.570717 C 164.08399,22.254918 163.80119,23.208229 163.80119,24.430652 C 163.80119,25.625716 164.07943,26.560781 164.63591,27.235852 C 165.19239,27.901802 165.95412,28.234777 166.92112,28.234777 C 167.7239,28.234777 168.39442,28.006712 168.93265,27.550582 C 169.48,27.103576 169.79929,26.515168 169.89053,25.785359 L 169.05581,25.785359 C 168.9737,26.305349 168.74107,26.720427 168.35793,27.030594 C 167.9839,27.33164 167.52777,27.482163 166.98954,27.482163 C 166.29622,27.482163 165.73974,27.222169 165.3201,26.70218 C 164.89134,26.173071 164.67696,25.452386 164.67696,24.540124 L 164.67696,24.540124 z"
         id="text3165" />
      <path
         style="fill:url(#radialGradient3336);fill-opacity:1;fill-rule:evenodd;stroke:#000000;stroke-width:1.5;stroke-linecap:round;stroke-linejoin:miter;stroke-miterlimit:4;stroke-dashoffset:0;stroke-opacity:1"
         d="M 29.702138,89.51123 L 169.69635,89.51123 C 174.82246,89.51123 178.94925,93.638021 178.94925,98.764123 L 178.94925,178.64231 C 178.94925,183.76841 174.82246,187.8952 169.69635,187.8952 L 29.702138,187.8952 C 24.576036,187.8952 20.449245,183.76841 20.449245,178.64231 L 20.449245,98.764123 C 20.449245,93.638021 24.576036,89.51123 29.702138,89.51123 z"
         id="rect3171" />
      <path
         style="fill:url(#radialGradient3338);fill-opacity:1;fill-rule:evenodd;stroke:#000000;stroke-width:1.5;stroke-linecap:round;stroke-linejoin:miter;stroke-miterlimit:4;stroke-dashoffset:0;stroke-opacity:1"
         d="M 32.187347,37.40358 L 166.59623,37.40358 C 173.26947,37.40358 178.64179,42.775898 178.64179,49.449137 L 178.64179,61.735857 C 178.64179,68.409096 173.26947,73.781414 166.59623,73.781414 L 32.187347,73.781414 C 25.514109,73.781414 20.14179,68.409096 20.14179,61.735857 L 20.14179,49.449137 C 20.14179,42.775898 25.514109,37.40358 32.187347,37.40358 z"
         id="rect3173" />
      <path
         style="font-size:14.01231575px;font-style:normal;font-variant:normal;font-weight:normal;font-stretch:normal;text-align:start;line-height:125%;writing-mode:lr-tb;text-anchor:start;fill:#000000;fill-opacity:1;stroke:none;stroke-width:1px;stroke-linecap:butt;stroke-linejoin:miter;stroke-opacity:1;font-family:Dotum;-inkscape-font-specification:Dotum"
         d="M 32.362051,55.962116 L 32.362051,56.030535 C 32.36205,57.079637 32.685902,57.886986 33.333608,58.452586 C 33.98131,59.02731 34.911814,59.314672 36.125124,59.314672 C 37.192462,59.314672 38.036302,59.050116 38.656646,58.521006 C 39.276975,57.991896 39.587143,57.280334 39.587151,56.386317 C 39.587143,55.574409 39.33171,54.940389 38.820853,54.484255 C 38.337348,54.055497 37.539121,53.704277 36.42617,53.430594 L 35.249354,53.143232 C 34.647259,52.988154 34.213936,52.778334 33.949383,52.513773 C 33.684826,52.240101 33.552548,51.870636 33.55255,51.405377 C 33.552548,50.803293 33.748684,50.338041 34.140958,50.009619 C 34.542349,49.681214 35.117073,49.517008 35.86513,49.516998 C 36.640546,49.517008 37.242637,49.708582 37.671405,50.091722 C 38.109283,50.47488 38.332787,51.026797 38.341916,51.747474 L 39.299789,51.747474 C 39.281536,50.780487 38.975929,50.027873 38.382968,49.48963 C 37.789992,48.951407 36.964398,48.68229 35.906181,48.68228 C 34.884447,48.68229 34.072536,48.933162 33.470447,49.434895 C 32.886599,49.927524 32.594676,50.57979 32.594677,51.391693 C 32.594676,52.167121 32.818179,52.76465 33.265188,53.184284 C 33.666581,53.549193 34.359898,53.859361 35.345141,54.114789 L 36.289331,54.347415 C 37.165095,54.566362 37.762624,54.812672 38.081922,55.086346 C 38.455942,55.396518 38.642955,55.866332 38.642962,56.495788 C 38.642955,57.097882 38.419451,57.576818 37.972451,57.932598 C 37.525437,58.297503 36.909662,58.479954 36.125124,58.479954 C 35.231105,58.479954 34.537788,58.256451 34.045171,57.809443 C 33.561671,57.371559 33.319922,56.755785 33.319924,55.962116 L 32.362051,55.962116 z M 41.270271,53.991634 C 41.27027,55.61546 41.671664,56.910869 42.474455,57.877862 C 43.268118,58.835736 44.312655,59.314672 45.608068,59.314672 C 46.949084,59.314672 48.020989,58.835736 48.823785,57.877862 C 49.64481,56.919991 50.055327,55.624583 50.055336,53.991634 C 50.055327,52.349572 49.64481,51.049603 48.823785,50.091722 C 48.020989,49.152104 46.949084,48.68229 45.608068,48.68228 C 44.303532,48.68229 43.258995,49.152104 42.474455,50.091722 C 41.671664,51.058726 41.27027,52.358695 41.270271,53.991634 L 41.270271,53.991634 z M 42.187093,53.991634 C 42.187091,52.605005 42.510943,51.501171 43.15865,50.68013 C 43.778983,49.895595 44.595455,49.503324 45.608068,49.503314 C 46.675406,49.503324 47.523807,49.895595 48.153274,50.68013 C 48.810093,51.482926 49.138506,52.58676 49.138515,53.991634 C 49.138506,55.387396 48.810093,56.491229 48.153274,57.303138 C 47.523807,58.096806 46.675406,58.493638 45.608068,58.493638 C 44.586333,58.493638 43.765299,58.096806 43.144966,57.303138 C 42.506382,56.482107 42.187091,55.378273 42.187093,53.991634 L 42.187093,53.991634 z M 51.067946,59.02731 L 52.039503,59.02731 L 53.18895,55.948432 L 57.732006,55.948432 L 58.854086,59.02731 L 59.825643,59.02731 L 55.99415,48.942274 L 54.899438,48.942274 L 51.067946,59.02731 z M 53.50368,55.113714 L 55.43311,49.927515 L 57.403592,55.113714 L 53.50368,55.113714 z M 61.60455,59.02731 L 62.521372,59.02731 L 62.521372,54.662145 L 64.669744,54.662145 C 65.919535,54.66215 66.859162,54.420401 67.488628,53.936898 C 68.108957,53.462529 68.419125,52.746405 68.419133,51.788526 C 68.419125,50.839783 68.140886,50.128221 67.584415,49.653837 C 67.037052,49.179472 66.211458,48.942284 65.107629,48.942274 L 61.60455,48.942274 L 61.60455,59.02731 z M 62.521372,53.827427 L 62.521372,49.776992 L 65.080261,49.776992 C 65.892167,49.777001 66.494258,49.936647 66.886536,50.255929 C 67.278801,50.575228 67.474937,51.076971 67.474944,51.761158 C 67.474937,52.500095 67.242311,53.033767 66.777065,53.362175 C 66.339174,53.672348 65.641296,53.827432 64.683428,53.827427 L 62.521372,53.827427 z M 69.896993,53.608485 L 69.896993,54.361099 L 76.875783,54.361099 L 76.875783,53.608485 L 69.896993,53.608485 z M 78.873635,59.02731 L 85.647167,59.02731 L 85.647167,58.192592 L 79.790456,58.192592 L 79.790456,54.265312 L 84.990339,54.265312 L 84.990339,53.430594 L 79.790456,53.430594 L 79.790456,49.776992 L 85.48296,49.776992 L 85.48296,48.942274 L 78.873635,48.942274 L 78.873635,59.02731 z M 87.932377,59.02731 L 88.602888,59.02731 L 88.602888,50.488555 L 93.830138,59.02731 L 94.829063,59.02731 L 94.829063,48.942274 L 93.912242,48.942274 L 93.912242,57.426293 L 88.712359,48.942274 L 87.686066,48.942274 L 87.686066,59.02731 L 87.932377,59.02731 z M 99.864739,59.02731 L 100.86366,59.02731 L 104.35306,48.942274 L 103.42255,48.942274 L 100.37104,57.850494 L 97.333217,48.942274 L 96.36166,48.942274 L 99.864739,59.02731 z M 106.28249,57.549449 L 107.52772,57.549449 L 107.52772,56.304213 L 106.28249,56.304213 L 106.28249,57.549449 z M 106.28249,51.665371 L 107.52772,51.665371 L 107.52772,50.420136 L 106.28249,50.420136 L 106.28249,51.665371 z M 115.32755,59.02731 L 116.24437,59.02731 L 116.24437,54.142157 L 121.99161,54.142157 L 121.99161,59.02731 L 122.90843,59.02731 L 122.90843,48.942274 L 121.99161,48.942274 L 121.99161,53.321123 L 116.24437,53.321123 L 116.24437,48.942274 L 115.32755,48.942274 L 115.32755,59.02731 z M 125.85047,54.867404 C 125.84134,54.119355 126.06941,53.489896 126.53466,52.979025 C 126.94518,52.532024 127.46972,52.308521 128.10831,52.308514 C 128.73776,52.308521 129.24863,52.532024 129.64091,52.979025 C 130.07879,53.489896 130.29773,54.119355 130.29773,54.867404 L 125.85047,54.867404 z M 125.85047,55.537915 L 131.1735,55.537915 L 131.1735,55.264237 C 131.1735,54.096549 130.89982,53.18429 130.35247,52.527457 C 129.80511,51.888882 129.06618,51.569591 128.13568,51.569583 C 127.15043,51.569591 126.37957,51.902565 125.8231,52.568508 C 125.2575,53.252709 124.9747,54.20602 124.9747,55.428444 C 124.9747,56.623507 125.25293,57.558573 125.80941,58.233644 C 126.36589,58.899594 127.12763,59.232568 128.09463,59.232569 C 128.89741,59.232568 129.56792,59.004504 130.10616,58.548373 C 130.65351,58.101367 130.9728,57.51296 131.06403,56.78315 L 130.22931,56.78315 C 130.14721,57.30314 129.91458,57.718218 129.53144,58.028385 C 129.1574,58.329432 128.70127,58.479954 128.16305,58.479954 C 127.46972,58.479954 126.91325,58.219961 126.49361,57.699971 C 126.06485,57.170862 125.85046,56.450178 125.85047,55.537915 L 125.85047,55.537915 z M 137.90599,57.987333 L 137.90599,58.096805 C 137.90598,58.425219 137.99264,58.67609 138.16598,58.849419 C 138.3393,59.022749 138.5993,59.109413 138.94596,59.109413 C 139.01894,59.109413 139.09648,59.104852 139.17859,59.09573 C 139.29718,59.077484 139.42033,59.059239 139.54805,59.040994 L 139.54805,58.411534 L 139.24701,58.411534 C 139.00981,58.411535 138.85473,58.356799 138.78176,58.247328 C 138.73614,58.174348 138.71333,58.010141 138.71334,57.754707 L 138.71334,53.786375 C 138.71333,53.056573 138.48526,52.504657 138.02914,52.130623 C 137.58213,51.765727 136.9253,51.583275 136.05866,51.583267 C 135.17376,51.583275 134.47132,51.797656 133.95134,52.226411 C 133.44047,52.646057 133.18048,53.216219 133.17136,53.936898 L 134.00607,53.936898 C 134.02432,53.398671 134.20677,52.992715 134.55343,52.719031 C 134.90009,52.454482 135.40183,52.322205 136.05866,52.322198 C 136.70636,52.322205 137.17161,52.449921 137.45442,52.705347 C 137.72809,52.942541 137.86493,53.343935 137.86493,53.909531 C 137.86493,54.247072 137.74177,54.484259 137.49547,54.621094 C 137.31301,54.730569 137.01197,54.80355 136.59233,54.840036 L 136.20918,54.867404 C 135.68007,54.903898 135.2878,54.94495 135.03237,54.990559 C 134.62185,55.054421 134.27063,55.159331 133.97871,55.305289 C 133.58643,55.469499 133.29451,55.706686 133.10294,56.016852 C 132.90224,56.327023 132.80189,56.696488 132.80189,57.125248 C 132.80189,57.754708 133.01627,58.261012 133.44503,58.644161 C 133.88292,59.036433 134.47132,59.232568 135.21026,59.232569 C 135.72112,59.232568 136.20006,59.127659 136.64707,58.917839 C 137.09407,58.708019 137.51371,58.397851 137.90599,57.987333 L 137.90599,57.987333 z M 137.86493,55.209501 L 137.86493,56.235794 C 137.86493,56.919991 137.62774,57.467347 137.15337,57.877862 C 136.68811,58.279257 136.0769,58.479954 135.31973,58.479954 C 134.80886,58.479954 134.4029,58.352238 134.10186,58.096805 C 133.80994,57.841373 133.66397,57.508398 133.66398,57.09788 C 133.66397,56.70561 133.80081,56.381758 134.07449,56.126323 C 134.37554,55.843525 134.79974,55.670196 135.3471,55.606334 L 136.1955,55.496863 C 136.62426,55.460376 136.92986,55.423886 137.11232,55.387392 C 137.41336,55.341783 137.66423,55.282486 137.86493,55.209501 L 137.86493,55.209501 z M 147.47104,48.942274 L 146.63632,48.942274 L 146.63632,52.92429 C 146.35351,52.513779 145.99773,52.176243 145.56897,51.911681 C 145.14933,51.683623 144.67039,51.569591 144.13216,51.569583 C 143.1378,51.569591 142.34869,51.966424 141.76485,52.760083 C 141.24486,53.480774 140.98487,54.361104 140.98487,55.401076 C 140.98487,56.431932 141.24486,57.307701 141.76485,58.028385 C 142.34869,58.831174 143.1378,59.232568 144.13216,59.232569 C 144.66127,59.232568 145.15389,59.095729 145.61003,58.822051 C 146.0479,58.566619 146.39,58.219961 146.63632,57.782075 L 146.63632,59.02731 L 147.47104,59.02731 L 147.47104,48.942274 z M 144.269,52.308514 C 145.0353,52.308521 145.64651,52.627812 146.10265,53.266387 C 146.51316,53.841116 146.71841,54.548117 146.71842,55.387392 C 146.71841,56.217552 146.51316,56.924552 146.10265,57.508397 C 145.64651,58.156102 145.0353,58.479954 144.269,58.479954 C 143.5027,58.479954 142.89605,58.156102 142.44904,57.508397 C 142.04765,56.924552 141.84695,56.217552 141.84695,55.387392 C 141.84695,54.548117 142.04765,53.841116 142.44904,53.266387 C 142.89605,52.627812 143.5027,52.308521 144.269,52.308514 L 144.269,52.308514 z M 150.31729,54.867404 C 150.30816,54.119355 150.53623,53.489896 151.00148,52.979025 C 151.412,52.532024 151.93654,52.308521 152.57513,52.308514 C 153.20458,52.308521 153.71545,52.532024 154.10773,52.979025 C 154.54561,53.489896 154.76455,54.119355 154.76455,54.867404 L 150.31729,54.867404 z M 150.31729,55.537915 L 155.64032,55.537915 L 155.64032,55.264237 C 155.64032,54.096549 155.36664,53.18429 154.81929,52.527457 C 154.27193,51.888882 153.533,51.569591 152.6025,51.569583 C 151.61725,51.569591 150.84639,51.902565 150.28992,52.568508 C 149.72432,53.252709 149.44152,54.20602 149.44152,55.428444 C 149.44152,56.623507 149.71975,57.558573 150.27623,58.233644 C 150.83271,58.899594 151.59445,59.232568 152.56145,59.232569 C 153.36423,59.232568 154.03474,59.004504 154.57298,58.548373 C 155.12033,58.101367 155.43962,57.51296 155.53085,56.78315 L 154.69613,56.78315 C 154.61403,57.30314 154.3814,57.718218 153.99826,58.028385 C 153.62422,58.329432 153.16809,58.479954 152.62987,58.479954 C 151.93654,58.479954 151.38007,58.219961 150.96043,57.699971 C 150.53167,57.170862 150.31728,56.450178 150.31729,55.537915 L 150.31729,55.537915 z M 157.56976,59.02731 L 158.40447,59.02731 L 158.40447,54.990559 C 158.40447,54.151284 158.58692,53.512703 158.95183,53.074813 C 159.30761,52.646057 159.81847,52.431676 160.48443,52.431669 L 160.60758,52.431669 L 160.60758,51.569583 L 160.5118,51.569583 C 160.02829,51.569591 159.60865,51.683623 159.25288,51.911681 C 158.87885,52.157998 158.59149,52.527463 158.39079,53.020077 L 158.39079,51.747474 L 157.56976,51.747474 L 157.56976,59.02731 z"
         id="text3175" />
      <path
         style="font-size:14.01231575px;font-style:normal;font-variant:normal;font-weight:normal;font-stretch:normal;text-align:start;line-height:125%;writing-mode:lr-tb;text-anchor:start;fill:#000000;fill-opacity:1;stroke:none;stroke-width:1px;stroke-linecap:butt;stroke-linejoin:miter;stroke-opacity:1;font-family:Dotum;-inkscape-font-specification:Dotum"
         d="M 38.087887,107.57548 L 38.087887,107.6439 C 38.087886,108.693 38.411738,109.50035 39.059444,110.06595 C 39.707146,110.64068 40.63765,110.92804 41.85096,110.92804 C 42.918298,110.92804 43.762138,110.66348 44.382482,110.13437 C 45.002811,109.60526 45.312979,108.8937 45.312987,107.99968 C 45.312979,107.18777 45.057546,106.55375 44.546688,106.09762 C 44.063184,105.66886 43.264957,105.31764 42.152005,105.04396 L 40.97519,104.7566 C 40.373095,104.60152 39.939772,104.3917 39.675219,104.12714 C 39.410662,103.85347 39.278384,103.484 39.278386,103.01874 C 39.278384,102.41666 39.47452,101.95141 39.866794,101.62298 C 40.268185,101.29458 40.842909,101.13037 41.590965,101.13036 C 42.366381,101.13037 42.968473,101.32195 43.397241,101.70509 C 43.835119,102.08824 44.058622,102.64016 44.067752,103.36084 L 45.025625,103.36084 C 45.007372,102.39385 44.701765,101.64124 44.108803,101.103 C 43.515828,100.56477 42.690233,100.29566 41.632017,100.29565 C 40.610282,100.29566 39.798372,100.54653 39.196283,101.04826 C 38.612435,101.54089 38.320512,102.19315 38.320513,103.00506 C 38.320512,103.78049 38.544015,104.37802 38.991024,104.79765 C 39.392416,105.16256 40.085733,105.47273 41.070977,105.72815 L 42.015166,105.96078 C 42.890931,106.17973 43.48846,106.42604 43.807758,106.69971 C 44.181777,107.00988 44.36879,107.4797 44.368798,108.10915 C 44.36879,108.71125 44.145287,109.19018 43.698286,109.54596 C 43.251273,109.91087 42.635498,110.09332 41.85096,110.09332 C 40.956941,110.09332 40.263624,109.86982 39.771007,109.42281 C 39.287507,108.98492 39.045758,108.36915 39.04576,107.57548 L 38.087887,107.57548 z M 46.996107,105.605 C 46.996106,107.22883 47.3975,108.52423 48.20029,109.49123 C 48.993954,110.4491 50.038491,110.92804 51.333904,110.92804 C 52.67492,110.92804 53.746824,110.4491 54.549621,109.49123 C 55.370646,108.53336 55.781163,107.23795 55.781172,105.605 C 55.781163,103.96294 55.370646,102.66297 54.549621,101.70509 C 53.746824,100.76547 52.67492,100.29566 51.333904,100.29565 C 50.029368,100.29566 48.984831,100.76547 48.20029,101.70509 C 47.3975,102.67209 46.996106,103.97206 46.996107,105.605 L 46.996107,105.605 z M 47.912928,105.605 C 47.912927,104.21837 48.236779,103.11454 48.884485,102.29349 C 49.504819,101.50896 50.321291,101.11669 51.333904,101.11668 C 52.401242,101.11669 53.249643,101.50896 53.87911,102.29349 C 54.535929,103.09629 54.864342,104.20013 54.864351,105.605 C 54.864342,107.00076 54.535929,108.10459 53.87911,108.9165 C 53.249643,109.71017 52.401242,110.107 51.333904,110.107 C 50.312168,110.107 49.491135,109.71017 48.870802,108.9165 C 48.232217,108.09547 47.912927,106.99164 47.912928,105.605 L 47.912928,105.605 z M 56.793781,110.64068 L 57.765338,110.64068 L 58.914786,107.5618 L 63.457842,107.5618 L 64.579922,110.64068 L 65.551479,110.64068 L 61.719986,100.55564 L 60.625274,100.55564 L 56.793781,110.64068 z M 59.229516,106.72708 L 61.158946,101.54088 L 63.129428,106.72708 L 59.229516,106.72708 z M 67.330386,110.64068 L 68.247207,110.64068 L 68.247207,106.27551 L 70.39558,106.27551 C 71.645371,106.27551 72.584998,106.03377 73.214464,105.55026 C 73.834793,105.07589 74.144961,104.35977 74.144969,103.40189 C 74.144961,102.45315 73.866722,101.74159 73.310251,101.2672 C 72.762888,100.79284 71.937294,100.55565 70.833465,100.55564 L 67.330386,100.55564 L 67.330386,110.64068 z M 68.247207,105.44079 L 68.247207,101.39036 L 70.806097,101.39036 C 71.618003,101.39037 72.220094,101.55001 72.612372,101.86929 C 73.004637,102.18859 73.200773,102.69034 73.20078,103.37452 C 73.200773,104.11346 72.968147,104.64713 72.502901,104.97554 C 72.06501,105.28571 71.367132,105.4408 70.409264,105.44079 L 68.247207,105.44079 z M 75.622828,105.22185 L 75.622828,105.97446 L 82.601618,105.97446 L 82.601618,105.22185 L 75.622828,105.22185 z M 84.599471,110.64068 L 91.373002,110.64068 L 91.373002,109.80596 L 85.516292,109.80596 L 85.516292,105.87868 L 90.716175,105.87868 L 90.716175,105.04396 L 85.516292,105.04396 L 85.516292,101.39036 L 91.208796,101.39036 L 91.208796,100.55564 L 84.599471,100.55564 L 84.599471,110.64068 z M 93.658212,110.64068 L 94.328724,110.64068 L 94.328724,102.10192 L 99.555974,110.64068 L 100.5549,110.64068 L 100.5549,100.55564 L 99.638078,100.55564 L 99.638078,109.03966 L 94.438195,100.55564 L 93.411902,100.55564 L 93.411902,110.64068 L 93.658212,110.64068 z M 105.59057,110.64068 L 106.5895,110.64068 L 110.07889,100.55564 L 109.14839,100.55564 L 106.09688,109.46386 L 103.05905,100.55564 L 102.0875,100.55564 L 105.59057,110.64068 z M 112.00832,109.16281 L 113.25356,109.16281 L 113.25356,107.91758 L 112.00832,107.91758 L 112.00832,109.16281 z M 112.00832,103.27874 L 113.25356,103.27874 L 113.25356,102.0335 L 112.00832,102.0335 L 112.00832,103.27874 z M 121.05339,110.64068 L 123.927,110.64068 C 124.72979,110.64068 125.32732,110.62699 125.7196,110.59962 C 126.22133,110.56313 126.5908,110.50384 126.82799,110.42173 C 127.32061,110.22104 127.70832,109.89718 127.99112,109.45018 C 128.27392,109.01229 128.41532,108.50143 128.41532,107.91758 C 128.41532,107.23339 128.23743,106.66322 127.88165,106.20709 C 127.53499,105.74184 127.06061,105.44536 126.45853,105.31764 C 126.92377,105.12607 127.28868,104.83871 127.55324,104.45555 C 127.81779,104.07241 127.95006,103.63452 127.95007,103.1419 C 127.95006,102.67665 127.84059,102.25245 127.62166,101.86929 C 127.40271,101.47703 127.10622,101.17599 126.7322,100.96616 C 126.45852,100.80196 126.13011,100.68793 125.74696,100.62406 C 125.41854,100.57846 124.99434,100.55565 124.47436,100.55564 L 121.05339,100.55564 L 121.05339,110.64068 z M 124.31015,101.39036 C 125.2589,101.39037 125.93397,101.50896 126.33537,101.74614 C 126.78237,102.0107 127.00588,102.4942 127.00588,103.19663 C 127.00588,103.88996 126.77325,104.37345 126.308,104.64713 C 125.9066,104.88432 125.21329,105.00291 124.22805,105.00291 L 121.97021,105.00291 L 121.97021,101.39036 L 124.31015,101.39036 z M 121.97021,109.80596 L 121.97021,105.82394 L 124.85751,105.82394 C 125.71503,105.82395 126.36273,105.99271 126.80062,106.33025 C 127.2385,106.67691 127.45744,107.19234 127.45745,107.87653 C 127.45744,108.60634 127.2385,109.1172 126.80062,109.40912 C 126.40835,109.67368 125.73784,109.80596 124.78909,109.80596 L 121.97021,109.80596 z M 133.49205,103.18295 C 132.44295,103.18296 131.60823,103.57979 130.9879,104.37345 C 130.44054,105.09414 130.16686,105.97447 130.16686,107.01444 C 130.16686,108.0453 130.44054,108.91651 130.9879,109.62807 C 131.60823,110.43086 132.44295,110.83225 133.49205,110.83225 C 134.54114,110.83225 135.37586,110.43086 135.99621,109.62807 C 136.55268,108.91651 136.83092,108.0453 136.83092,107.01444 C 136.83092,105.97447 136.55268,105.09414 135.99621,104.37345 C 135.37586,103.57979 134.54114,103.18296 133.49205,103.18295 L 133.49205,103.18295 z M 133.49205,103.92188 C 134.26747,103.92189 134.88324,104.24118 135.33938,104.87975 C 135.75901,105.4636 135.96883,106.1706 135.96884,107.00076 C 135.96883,107.83092 135.75901,108.53336 135.33938,109.10808 C 134.88324,109.75578 134.26747,110.07964 133.49205,110.07964 C 132.7075,110.07964 132.09173,109.75578 131.64472,109.10808 C 131.23421,108.53336 131.02895,107.83092 131.02895,107.00076 C 131.02895,106.16148 131.23421,105.45448 131.64472,104.87975 C 132.10085,104.24118 132.71663,103.92189 133.49205,103.92188 L 133.49205,103.92188 z M 144.98653,100.55564 L 144.15181,100.55564 L 144.15181,104.53765 C 143.869,104.12714 143.51322,103.78961 143.08447,103.52505 C 142.66482,103.29699 142.18589,103.18296 141.64766,103.18295 C 140.65329,103.18296 139.86419,103.57979 139.28034,104.37345 C 138.76035,105.09414 138.50036,105.97447 138.50036,107.01444 C 138.50036,108.0453 138.76035,108.92107 139.28034,109.64175 C 139.86419,110.44454 140.65329,110.84593 141.64766,110.84593 C 142.17676,110.84593 142.66938,110.70909 143.12552,110.43542 C 143.5634,110.17998 143.90549,109.83333 144.15181,109.39544 L 144.15181,110.64068 L 144.98653,110.64068 L 144.98653,100.55564 z M 141.7845,103.92188 C 142.55079,103.92189 143.162,104.24118 143.61814,104.87975 C 144.02865,105.45448 144.23391,106.16148 144.23391,107.00076 C 144.23391,107.83092 144.02865,108.53792 143.61814,109.12176 C 143.162,109.76947 142.55079,110.09332 141.7845,110.09332 C 141.01819,110.09332 140.41154,109.76947 139.96454,109.12176 C 139.56314,108.53792 139.36244,107.83092 139.36245,107.00076 C 139.36244,106.16148 139.56314,105.45448 139.96454,104.87975 C 140.41154,104.24118 141.01819,103.92189 141.7845,103.92188 L 141.7845,103.92188 z M 149.47485,111.18803 L 152.60846,103.36084 L 151.70532,103.36084 L 149.47485,109.01229 L 147.24437,103.36084 L 146.34123,103.36084 L 149.02328,110.09332 L 148.76328,110.76383 C 148.59908,111.14698 148.43943,111.41153 148.28435,111.5575 C 148.09277,111.75819 147.83278,111.85854 147.50437,111.85854 L 147.23069,111.81749 L 146.91596,111.77644 L 146.91596,112.54274 C 147.02543,112.56098 147.12578,112.57466 147.217,112.58379 C 147.31735,112.60203 147.4177,112.61116 147.51805,112.61116 C 148.00155,112.61116 148.39838,112.49256 148.70855,112.25538 C 149.00047,112.03643 149.2559,111.68065 149.47485,111.18803 L 149.47485,111.18803 z"
         id="text3183" />
    </g>
  </g>
</svg>
