<svg width="29" height="29" xmlns="http://www.w3.org/2000/svg"><g stroke="#000" stroke-width=".5" fill="none" fill-rule="evenodd"><path d="M3.552 22.155c-.43-.914-.5-1.098-.884-1.991-.242-.566-.362-1.235-.612-1.736-.183-.365-.143-.872-.143-1.266 0-.086-.082-.347-.082-.347v-.592c0-.254-.005-.503.02-.756.011-.106.011-.307.062-.408.003-.006.124-.45.12-.445-.118.117-.432.603-.488.772-.007.02-.158.33-.158.33s.228-1.701.585-2.048c.19-.184 1.032-.648 1.166-.917.023-.045-.277-.12-.306-.122-.203-.019-1.195.906-1.195.906-.054.036.092-.615.406-1.122.207-.332.635-.543.608-.665-.05-.233-.941.43-.941.43s.502-1.559.79-2.116c.237-.458.763-1.153.94-1.228.828-.348.506-.384.488-.383-1.231.07-1.38.648-1.47.469-.004-.009.598-1.221.905-1.608.244-.309.863-.948.936-.717.174.55.515.565.966.46.06-.015.232-.71-.427-1.284-.561-.488-1.537-.035-1.517-.07.872-1.495 3.714-.168 4.278.47.346.392 1.163-.609 1.324-.856.132-.202-.165-.484-.357-.629-.225-.17-.638-.369-.993-.39-.416-.027-1.502.235-1.502.235s.703-.827 1.69-1.153c1.077-.356 2.636.075 3.592.075.498 0 .8.052 1.29.165.041.01.791.486.774.503-.075.075-.468-.69-.498-.722-.402-.443-.906-.701-1.43-.98-.034-.019-.49-.245-.53-.204-.03.029.081.02.122.02h.45c.39 0 .697-.013 1.062.143.747.32 1.644.42 2.266.776.208.119.974.52.974.52l-.463-.622c-.22-.302-.586-.48-.83-.647-.202-.137-.637-.356-.637-.356s.694-.051 1.04-.028c.484.032 1.617.154 1.868.22 1.286.338 1.428.527 2.429 1.456.361.336 1.251 1.568 1.276 1.52.567-1.135-1.074-2.802-1.791-3.664-.106-.126 1.875 1.738 1.896 1.741.416.052-.443-1.695-.443-1.695s.835.724 1.132 1c.857.797 1.789 1.584 2.064 2.576.102.364.586.99.655 1.025.313.158.885.954.714.54-.268-.65-1.05-2.66-1.05-2.66s1.132 1.397 1.315 1.697c.335.548.617 1.554.858 2.155.167.419.184.897.272 1.356.11.576.273 1.138.337 1.697.011.097-.023-2.507-.01-2.412.02.158.512 1.33.6 1.941.082.57-.055 1.266-.073 1.726-.028.69-.287.88-.248 1.328.057.667.392 1.875.592 2.675.107.427-.02.912.02 1.348.096 1.05.519 2.488.178 3.51"/><path d="M2.425 24.046c-.073.01-.147-.754-.148-.757-.129-.518-.19-.55.14-.626.866-.2.883-.469 1.746-.676.55-.132 2.262-.694 2.816-.828.447-.108 3.13-.246 3.352-.218.072.01 2.14.15 2.919-.045 1.217-.304 1.657-.932 2.83-1.364 1.546-.57 4.06-1.04 5.655-1.125 1.44-.075 2.96-.175 4.265.477.473.236 1.352 1.5 1.6 1.878.221.335-.255.973-.255.973s-.204-.057-.276-.129c-.187-.187-.833-1.185-1.048-1.293-.338-.168-1.625-.535-1.635-.534-.512.038-.421 2.031-.522 2.736-.227 1.595-.755 2.256-2.544 2.868-.705.24-3.742.578-4.36.17-1.328-.879-1.972-2.335-2.332-2.735-.28-.31-.493-.823-1.055-.698-.923.205-1.163.496-1.192.81-.038.423-.356 1.867-.472 2.37-.287 1.237-.74 1.513-1.916 2.185-.752.429-3.052.57-3.54.57-.298 0-1.626-.23-1.896-.77a70.616 70.616 0 00-1.159-2.162c-.187-.312-.272-.523-.39-.617-.267-.215-.672-.371-.583-.46z" fill="#000"/></g></svg>